{"title":"L.Illusionniste.2010.FRENCH.1080p.BRRip.x264.aac.mp4.anoXmous","uid":6893666,"size":733850739,"categoryP":"video","categoryS":"hd___movies","magnet":"?xt=urn:btih:728da85845932a839d0ec75152dcebc2ab61a175&amp;dn=L.Illusionniste.2010.FRENCH.1080p.BRRip.x264.aac.mp4.anoXmous&amp;tr=udp%3A%2F%2Ftracker.openbittorrent.com%3A80&amp;tr=udp%3A%2F%2Fopen.demonii.com%3A1337&amp;tr=udp%3A%2F%2Ftracker.coppersurfer.tk%3A6969&amp;tr=udp%3A%2F%2Fexodus.desync.com%3A6969","seeders":1,"leechers":0,"uploader":"anoXmous","files":-1,"time":1324115734,"description":"L.Illusionniste.2010.FRENCH.1080p.BRRip.x264.aac.mp4.anoXmous\n\nFormat                           : MPEG-4\nFormat profile                   : Base Media\nCodec ID                         : isom\nFile size                        : 700 MiB\nDuration                         : 1h 19mn\nOverall bit rate mode            : Variable\nOverall bit rate                 : 1 228 Kbps\n\n\nVideo\nID                               : 1\nFormat                           : AVC\nFormat/Info                      : Advanced Video Codec\nFormat profile                   : &lt;a class=&quot;__cf_email__&quot; href=&quot;/cdn-cgi/l/email-protection&quot; data-cfemail=&quot;256d4c424d6569110b14&quot;&gt;[email&amp;#160;protected]&lt;/a&gt;&lt;script cf-hash='f9e31' type=&quot;text/javascript&quot;&gt;\n/* &lt;![CDATA[ */!function(){try{var t=&quot;currentScript&quot;in document?document.currentScript:function(){for(var t=document.getElementsByTagName(&quot;script&quot;),e=t.length;e--;)if(t[e].getAttribute(&quot;cf-hash&quot;))return t[e]}();if(t&amp;&amp;t.previousSibling){var e,r,n,i,c=t.previousSibling,a=c.getAttribute(&quot;data-cfemail&quot;);if(a){for(e=&quot;&quot;,r=parseInt(a.substr(0,2),16),n=2;a.length-n;n+=2)i=parseInt(a.substr(n,2),16)^r,e+=String.fromCharCode(i);e=document.createTextNode(e),c.parentNode.replaceChild(e,c)}}}catch(u){}}();/* ]]&gt; */&lt;/script&gt;\nFormat settings, CABAC           : Yes\nFormat settings, ReFrames        : 4 frames\nCodec ID                         : avc1\nCodec ID/Info                    : Advanced Video Coding\nDuration                         : 1h 19mn\nBit rate                         : 1 148 Kbps\nMaximum bit rate                 : 10.0 Mbps\nWidth                            : 1 920 pixels\nHeight                           : 1 040 pixels\nDisplay aspect ratio             : 1.850\nFrame rate mode                  : Constant\nFrame rate                       : 24.000 fps\nColor space                      : YUV\nChroma subsampling               : 4:2:0\nBit depth                        : 8 bits\nScan type                        : Progressive\nBits/(Pixel*Frame)               : 0.024\nStream size                      : 654 MiB (93%)\nWriting library                  : x264 core 120 r2120 0c7dab9\n\n\nAudio\nID                               : 2\nFormat                           : AAC\nFormat/Info                      : Advanced Audio Codec\nFormat profile                   : LC\nCodec ID                         : 40\nDuration                         : 1h 19mn\nBit rate mode                    : Variable\nBit rate                         : 77.3 Kbps\nMaximum bit rate                 : 98.1 Kbps\nChannel(s)                       : 2 channels\nChannel positions                : Front: L R\nSampling rate                    : 48.0 KHz \nCompression mode                 : Lossy\nStream size                      : 44.1 MiB (6%)\nLanguage                         : French\n\n                              SUB:\nIllusionniste.2010.FRENCH.1080p.BRRip.x264.aac.mp4.anoXmous_swe.srt:\n &lt;a href=&quot;\nhttp://www.imdb.com/title/tt0775489/&quot; rel=&quot;nofollow&quot; target=&quot;_NEW&quot;&gt;\nhttp://www.imdb.com/title/tt0775489/&lt;/a&gt;\n\n +++++++ This work very fine with PSP and XBOX :) +++++++++\t","torrent":{"xt":"urn:btih:728da85845932a839d0ec75152dcebc2ab61a175","amp;dn":"L.Illusionniste.2010.FRENCH.1080p.BRRip.x264.aac.mp4.anoXmous","amp;tr":["udp%3A%2F%2Ftracker.openbittorrent.com%3A80","udp%3A%2F%2Fopen.demonii.com%3A1337","udp%3A%2F%2Ftracker.coppersurfer.tk%3A6969","udp%3A%2F%2Fexodus.desync.com%3A6969"],"infoHash":"728da85845932a839d0ec75152dcebc2ab61a175","infoHashBuffer":{"type":"Buffer","data":[114,141,168,88,69,147,42,131,157,14,199,81,82,220,235,194,171,97,161,117]},"announce":[],"urlList":[]}}